<mxfile host="www.draw.io" modified="2020-02-07T16:18:20.432Z" agent="Mozilla/5.0 (Windows NT 6.1; Win64; x64) AppleWebKit/537.36 (KHTML, like Gecko) Chrome/79.0.3945.130 Safari/537.36" etag="KwRgoS96_K8jrGnFe0J5" version="12.6.5" type="github">
  <diagram id="PL4qN2V-aL8oYVCRNPJO" name="Page-1">
    <mxGraphModel dx="2632" dy="952" grid="1" gridSize="10" guides="1" tooltips="1" connect="1" arrows="1" fold="1" page="1" pageScale="1" pageWidth="827" pageHeight="1169" math="0" shadow="0">
      <root>
        <mxCell id="0"/>
        <mxCell id="1" parent="0"/>
        <mxCell id="dvLsGVFBWOyTXWBjqWvK-1" value="" style="rounded=1;whiteSpace=wrap;html=1;arcSize=3;" parent="1" vertex="1">
          <mxGeometry x="-10" y="730" width="810" height="480" as="geometry"/>
        </mxCell>
        <mxCell id="dvLsGVFBWOyTXWBjqWvK-2" value="" style="rounded=1;whiteSpace=wrap;html=1;fillColor=none;" parent="1" vertex="1">
          <mxGeometry x="-76.25" y="350" width="420" height="100" as="geometry"/>
        </mxCell>
        <mxCell id="dvLsGVFBWOyTXWBjqWvK-3" value="" style="rounded=1;whiteSpace=wrap;html=1;fillColor=none;" parent="1" vertex="1">
          <mxGeometry x="-80" y="90" width="420" height="250" as="geometry"/>
        </mxCell>
        <mxCell id="dvLsGVFBWOyTXWBjqWvK-4" value="Web digital model development&amp;nbsp; of pilot sites and monitoring dashboard for each frontrunner city" style="rounded=0;whiteSpace=wrap;html=1;" parent="1" vertex="1">
          <mxGeometry x="-66.25" y="320" width="390" height="60" as="geometry"/>
        </mxCell>
        <mxCell id="dvLsGVFBWOyTXWBjqWvK-5" value="Market analysis, User requirements, Business deployment, Replication and Scale-up to followers and other cities&amp;nbsp;&amp;nbsp;" style="rounded=0;whiteSpace=wrap;html=1;" parent="1" vertex="1">
          <mxGeometry x="-70.62" y="480" width="410" height="50" as="geometry"/>
        </mxCell>
        <mxCell id="dvLsGVFBWOyTXWBjqWvK-6" value="Communication, Dissemination, Networking &amp;amp; Cluster activities" style="rounded=0;whiteSpace=wrap;html=1;" parent="1" vertex="1">
          <mxGeometry x="-66.87" y="550" width="407.5" height="60" as="geometry"/>
        </mxCell>
        <mxCell id="dvLsGVFBWOyTXWBjqWvK-7" value="Cities Diagnosis, case studies analysis, identification of stakeholders and innovative IM selection" style="rounded=0;whiteSpace=wrap;html=1;" parent="1" vertex="1">
          <mxGeometry x="-70" y="110" width="390" height="40" as="geometry"/>
        </mxCell>
        <mxCell id="dvLsGVFBWOyTXWBjqWvK-8" value="Evaluation of KPIs and NBS Multicriteria Design Optimisation for each demo-site" style="rounded=0;whiteSpace=wrap;html=1;" parent="1" vertex="1">
          <mxGeometry x="140" y="170" width="180" height="60" as="geometry"/>
        </mxCell>
        <mxCell id="dvLsGVFBWOyTXWBjqWvK-9" value="NBS selector development based on NBS type and Plant selectors and application to demo-sites" style="rounded=0;whiteSpace=wrap;html=1;" parent="1" vertex="1">
          <mxGeometry x="-70" y="170" width="180" height="60" as="geometry"/>
        </mxCell>
        <mxCell id="dvLsGVFBWOyTXWBjqWvK-10" value="Implementation, Monitoring, Evaluation &amp;amp; Improvmment of design support tools &amp;amp; services" style="rounded=0;whiteSpace=wrap;html=1;" parent="1" vertex="1">
          <mxGeometry x="-68.75" y="400" width="385" height="40" as="geometry"/>
        </mxCell>
        <mxCell id="dvLsGVFBWOyTXWBjqWvK-11" value="Coordination and project Management" style="rounded=0;whiteSpace=wrap;html=1;" parent="1" vertex="1">
          <mxGeometry x="-66.87" y="620" width="407.5" height="50" as="geometry"/>
        </mxCell>
        <mxCell id="dvLsGVFBWOyTXWBjqWvK-12" value="Participe approach, collaborative tools &amp;amp; services including multistakeholder platform development" style="rounded=0;whiteSpace=wrap;html=1;" parent="1" vertex="1">
          <mxGeometry x="360" y="90" width="110" height="370" as="geometry"/>
        </mxCell>
        <mxCell id="dvLsGVFBWOyTXWBjqWvK-13" value="&lt;b&gt;&lt;font color=&quot;#ff0000&quot;&gt;TEC&lt;/font&gt;&lt;/b&gt;, CITIES,&amp;nbsp;" style="text;html=1;align=center;verticalAlign=middle;resizable=0;points=[];autosize=1;" parent="1" vertex="1">
          <mxGeometry x="-40" y="90" width="90" height="20" as="geometry"/>
        </mxCell>
        <mxCell id="dvLsGVFBWOyTXWBjqWvK-14" value=", NILU, RUE, ZEN,&lt;br&gt;NBK,&amp;nbsp; DW?&amp;nbsp;" style="text;html=1;align=center;verticalAlign=middle;resizable=0;points=[];autosize=1;" parent="1" vertex="1">
          <mxGeometry x="355" y="100" width="120" height="30" as="geometry"/>
        </mxCell>
        <mxCell id="dvLsGVFBWOyTXWBjqWvK-15" value="" style="edgeStyle=orthogonalEdgeStyle;rounded=0;orthogonalLoop=1;jettySize=auto;html=1;" parent="1" source="dvLsGVFBWOyTXWBjqWvK-16" target="dvLsGVFBWOyTXWBjqWvK-9" edge="1">
          <mxGeometry relative="1" as="geometry"/>
        </mxCell>
        <mxCell id="dvLsGVFBWOyTXWBjqWvK-16" value="&lt;b&gt;&lt;font color=&quot;#ff0000&quot;&gt;TRS,&lt;/font&gt;&lt;/b&gt; NILU, ZEN&amp;nbsp;" style="text;html=1;align=center;verticalAlign=middle;resizable=0;points=[];autosize=1;" parent="1" vertex="1">
          <mxGeometry x="-68.75" y="300" width="110" height="20" as="geometry"/>
        </mxCell>
        <mxCell id="dvLsGVFBWOyTXWBjqWvK-17" value="&lt;b style=&quot;color: rgb(255 , 0 , 0)&quot;&gt;P&amp;amp;C, &lt;/b&gt;AMP, CNR-IBE, CER" style="text;html=1;align=center;verticalAlign=middle;resizable=0;points=[];autosize=1;" parent="1" vertex="1">
          <mxGeometry x="-75" y="150" width="160" height="20" as="geometry"/>
        </mxCell>
        <mxCell id="dvLsGVFBWOyTXWBjqWvK-18" value="&lt;b&gt;&lt;font color=&quot;#ff0000&quot;&gt;NBK&lt;/font&gt;&lt;/b&gt;, EKO, R2M, CNR-ITC,VIT, ULB, CER" style="text;html=1;align=center;verticalAlign=middle;resizable=0;points=[];autosize=1;" parent="1" vertex="1">
          <mxGeometry x="135" y="150" width="240" height="20" as="geometry"/>
        </mxCell>
        <mxCell id="dvLsGVFBWOyTXWBjqWvK-19" value="&lt;b&gt;&lt;font color=&quot;#ff0000&quot;&gt;EKO,&lt;/font&gt;&lt;/b&gt; ITB, R2M, TEC, NBK, ZEN, GSG, ULB, CITIES&amp;nbsp;" style="text;html=1;align=center;verticalAlign=middle;resizable=0;points=[];autosize=1;" parent="1" vertex="1">
          <mxGeometry x="-71.25" y="380" width="300" height="20" as="geometry"/>
        </mxCell>
        <mxCell id="dvLsGVFBWOyTXWBjqWvK-20" value="&lt;b style=&quot;color: rgb(255 , 0 , 0)&quot;&gt;R2M, &lt;/b&gt;CITIES&amp;nbsp;" style="text;html=1;align=center;verticalAlign=middle;resizable=0;points=[];autosize=1;" parent="1" vertex="1">
          <mxGeometry x="-71.87" y="460" width="90" height="20" as="geometry"/>
        </mxCell>
        <mxCell id="dvLsGVFBWOyTXWBjqWvK-21" value="&lt;b style=&quot;color: rgb(255 , 0 , 0)&quot;&gt;BEC,&amp;nbsp;&lt;/b&gt;GSG&lt;b style=&quot;color: rgb(255 , 0 , 0)&quot;&gt;,&lt;/b&gt;&amp;nbsp;EFB, C21,&amp;nbsp;" style="text;html=1;align=center;verticalAlign=middle;resizable=0;points=[];autosize=1;" parent="1" vertex="1">
          <mxGeometry x="-71.87" y="530" width="140" height="20" as="geometry"/>
        </mxCell>
        <mxCell id="dvLsGVFBWOyTXWBjqWvK-22" value="Development of Innovative NBS technologies and integrated sensors" style="rounded=0;whiteSpace=wrap;html=1;" parent="1" vertex="1">
          <mxGeometry x="-71.25" y="250" width="391.25" height="40" as="geometry"/>
        </mxCell>
        <mxCell id="dvLsGVFBWOyTXWBjqWvK-23" value="&lt;font color=&quot;#ff0000&quot; style=&quot;font-weight: bold&quot;&gt;CAN,&amp;nbsp;&lt;/font&gt;AMP,&amp;nbsp; P&amp;amp;C, NBK, ZEN , GSG" style="text;html=1;align=center;verticalAlign=middle;resizable=0;points=[];autosize=1;" parent="1" vertex="1">
          <mxGeometry x="-76.25" y="230" width="210" height="20" as="geometry"/>
        </mxCell>
        <mxCell id="dvLsGVFBWOyTXWBjqWvK-24" value="Ethics Requirements" style="rounded=0;whiteSpace=wrap;html=1;" parent="1" vertex="1">
          <mxGeometry x="-66.87" y="640" width="407.5" height="50" as="geometry"/>
        </mxCell>
        <mxCell id="dvLsGVFBWOyTXWBjqWvK-25" value="&lt;b&gt;WP1. Diagnosis of the cities and planification of the demonstration activities&lt;/b&gt;&lt;br&gt;Expectations and Challenges identification&lt;br&gt;Internal alignment // Target values // Contextualisation // KPI" style="rounded=1;whiteSpace=wrap;html=1;fillColor=#fff2cc;strokeColor=#d6b656;" parent="1" vertex="1">
          <mxGeometry x="9.379999999999995" y="750" width="770.62" height="60" as="geometry"/>
        </mxCell>
        <mxCell id="dvLsGVFBWOyTXWBjqWvK-26" value="&lt;b&gt;WP3. NBS multi-criteria design optimisation toolbox&lt;/b&gt;&lt;br&gt;NBS and plant species selection //&amp;nbsp; NBS direct and indirect benefits assessments (improvement of air quality, climate change mitigation, and other environmental and socio-economic benefits)" style="rounded=1;whiteSpace=wrap;html=1;fillColor=#d5e8d4;strokeColor=#82b366;" parent="1" vertex="1">
          <mxGeometry x="10" y="920" width="330" height="100" as="geometry"/>
        </mxCell>
        <mxCell id="dvLsGVFBWOyTXWBjqWvK-27" value="&lt;b&gt;WP5. Innovative NBS technologies and integrated sensors developments&lt;/b&gt;&lt;br&gt;(TRL 6-&amp;gt;8 )" style="rounded=1;whiteSpace=wrap;html=1;fillColor=#f5f5f5;strokeColor=#666666;fontColor=#333333;" parent="1" vertex="1">
          <mxGeometry x="520" y="820" width="260" height="60" as="geometry"/>
        </mxCell>
        <mxCell id="dvLsGVFBWOyTXWBjqWvK-28" value="&lt;b&gt;WP2. Knowledge / capitalisation / etc Spec&amp;nbsp;&amp;nbsp;&lt;br&gt;&lt;br&gt;&lt;/b&gt;" style="rounded=1;whiteSpace=wrap;html=1;fillColor=#d5e8d4;strokeColor=#82b366;" parent="1" vertex="1">
          <mxGeometry x="8.759999999999991" y="820" width="330.62" height="90" as="geometry"/>
        </mxCell>
        <mxCell id="dvLsGVFBWOyTXWBjqWvK-29" value="Multistakeholder collaborative platform for NBS co-design&#xa;and co-monitoring" style="text;html=1;" parent="1" vertex="1">
          <mxGeometry x="410" y="540" width="330" height="40" as="geometry"/>
        </mxCell>
        <mxCell id="dvLsGVFBWOyTXWBjqWvK-30" value="Text" style="text;html=1;align=center;verticalAlign=middle;resizable=0;points=[];autosize=1;" parent="1" vertex="1">
          <mxGeometry x="412" y="520" width="40" height="20" as="geometry"/>
        </mxCell>
        <mxCell id="dvLsGVFBWOyTXWBjqWvK-31" value="&lt;b&gt;WP6. Pilots Implementation as&amp;nbsp;&lt;/b&gt;&lt;b&gt;LivingLabs&lt;br&gt;&lt;/b&gt;2D and 3D Digital models of pilot sites and monitoring dashboar&lt;b&gt;d&lt;/b&gt;&lt;b&gt;&lt;br&gt;&lt;/b&gt;" style="rounded=1;whiteSpace=wrap;html=1;fillColor=#e1d5e7;strokeColor=#9673a6;" parent="1" vertex="1">
          <mxGeometry x="520" y="890" width="260" height="60" as="geometry"/>
        </mxCell>
        <mxCell id="dvLsGVFBWOyTXWBjqWvK-32" value="WP8. NBS market analysis, business strategy deployment and replicability" style="rounded=1;whiteSpace=wrap;html=1;fillColor=#dae8fc;strokeColor=#6c8ebf;fontStyle=1" parent="1" vertex="1">
          <mxGeometry x="10.009999999999991" y="1040" width="769.99" height="60" as="geometry"/>
        </mxCell>
        <mxCell id="dvLsGVFBWOyTXWBjqWvK-33" value="WP9. Communication, dissemination, clusturing and networking&amp;nbsp;" style="rounded=1;whiteSpace=wrap;html=1;fillColor=#dae8fc;strokeColor=#6c8ebf;fontStyle=1" parent="1" vertex="1">
          <mxGeometry x="10.009999999999991" y="1120" width="770.62" height="60" as="geometry"/>
        </mxCell>
        <mxCell id="dvLsGVFBWOyTXWBjqWvK-34" value="&lt;b&gt;WP4. Co-production and co-creation of NBS and multistakeholders platform development&lt;/b&gt;&lt;br&gt;Framework architecture&lt;br&gt;use case services&lt;br&gt;modules development &amp;amp; integration&amp;nbsp;" style="rounded=1;whiteSpace=wrap;html=1;fillColor=#ffe6cc;strokeColor=#d79b00;" parent="1" vertex="1">
          <mxGeometry x="350" y="820" width="152" height="200" as="geometry"/>
        </mxCell>
        <mxCell id="dvLsGVFBWOyTXWBjqWvK-35" value="&lt;b&gt;WP7. Monitoring, Evaluation &amp;amp; Improvment&lt;br&gt;&lt;/b&gt;" style="rounded=1;whiteSpace=wrap;html=1;fillColor=#e1d5e7;strokeColor=#9673a6;" parent="1" vertex="1">
          <mxGeometry x="520" y="960" width="260" height="60" as="geometry"/>
        </mxCell>
        <mxCell id="dvLsGVFBWOyTXWBjqWvK-36" value="WP10. Coordination and management" style="text;html=1;strokeColor=none;fillColor=none;align=center;verticalAlign=middle;whiteSpace=wrap;rounded=0;fontStyle=1" parent="1" vertex="1">
          <mxGeometry x="550" y="1180" width="260" height="30" as="geometry"/>
        </mxCell>
        <mxCell id="dvLsGVFBWOyTXWBjqWvK-37" value="&lt;b&gt;WP1. Requirements, Specs&lt;/b&gt;&lt;br&gt;Elicitation of stakeholders || Use case ||&amp;nbsp;KPIs ||&amp;nbsp;Full workflow || Specs" style="rounded=1;whiteSpace=wrap;html=1;fillColor=#fff2cc;strokeColor=#d6b656;" parent="1" vertex="1">
          <mxGeometry x="830.62" y="710" width="339.38" height="70" as="geometry"/>
        </mxCell>
        <mxCell id="dvLsGVFBWOyTXWBjqWvK-38" value="&lt;b&gt;WP4. NBS multi-criteria design toolbox&lt;/b&gt;&lt;br&gt;NBS and plant species selection //&amp;nbsp; NBS direct and indirect benefits assessments (improvement of air quality, climate change mitigation, and other environmental and socio-economic benefits)" style="rounded=1;whiteSpace=wrap;html=1;fillColor=#d5e8d4;strokeColor=#82b366;" parent="1" vertex="1">
          <mxGeometry x="1090" y="800" width="330" height="80" as="geometry"/>
        </mxCell>
        <mxCell id="dvLsGVFBWOyTXWBjqWvK-39" value="&lt;b&gt;WP5. Innovative NBS technologies and integrated sensors developments&lt;/b&gt;&lt;br&gt;(TRL 6-&amp;gt;8 )" style="rounded=1;whiteSpace=wrap;html=1;fillColor=#f5f5f5;strokeColor=#666666;fontColor=#333333;" parent="1" vertex="1">
          <mxGeometry x="1340" y="570" width="260" height="60" as="geometry"/>
        </mxCell>
        <mxCell id="dvLsGVFBWOyTXWBjqWvK-40" value="&lt;b&gt;WP3. TEchnical developments&lt;br&gt;NBS&lt;br&gt;Sensors&lt;br&gt;Software&lt;br&gt;&lt;/b&gt;" style="rounded=1;whiteSpace=wrap;html=1;fillColor=#d5e8d4;strokeColor=#82b366;" parent="1" vertex="1">
          <mxGeometry x="830" y="800" width="250" height="80" as="geometry"/>
        </mxCell>
        <mxCell id="dvLsGVFBWOyTXWBjqWvK-41" value="&lt;b&gt;WP6. Pilots Implementation as&amp;nbsp;&lt;/b&gt;&lt;b&gt;LivingLabs&lt;br&gt;&lt;/b&gt;&lt;b&gt;Monitoring, Evaluation &amp;amp; Improvment&lt;/b&gt;&lt;b&gt;&lt;br&gt;&lt;/b&gt;" style="rounded=1;whiteSpace=wrap;html=1;fillColor=#e1d5e7;strokeColor=#9673a6;" parent="1" vertex="1">
          <mxGeometry x="1620" y="590" width="350" height="60" as="geometry"/>
        </mxCell>
        <mxCell id="dvLsGVFBWOyTXWBjqWvK-42" value="WP8. Exploitaiton, clusturing&lt;br&gt;&amp;nbsp;NBS market analysis, business strategy deployment and replicability" style="rounded=1;whiteSpace=wrap;html=1;fillColor=#dae8fc;strokeColor=#6c8ebf;fontStyle=1" parent="1" vertex="1">
          <mxGeometry x="829.38" y="1080" width="769.99" height="60" as="geometry"/>
        </mxCell>
        <mxCell id="dvLsGVFBWOyTXWBjqWvK-43" value="WP9. Communication, dissemination, training&amp;nbsp;" style="rounded=1;whiteSpace=wrap;html=1;fillColor=#dae8fc;strokeColor=#6c8ebf;fontStyle=1" parent="1" vertex="1">
          <mxGeometry x="829.38" y="1150" width="770.62" height="60" as="geometry"/>
        </mxCell>
        <mxCell id="dvLsGVFBWOyTXWBjqWvK-44" value="&lt;b&gt;WP4. OSAP urban nature design&lt;/b&gt;&lt;br&gt;Access management&lt;br&gt;Integration platform of multistakeholder collaborative platform" style="rounded=1;whiteSpace=wrap;html=1;fillColor=#ffe6cc;strokeColor=#d79b00;" parent="1" vertex="1">
          <mxGeometry x="820" y="940" width="770" height="60" as="geometry"/>
        </mxCell>
        <mxCell id="dvLsGVFBWOyTXWBjqWvK-45" value="&lt;b&gt;WP Cities as Living Labs. demonstration&lt;br&gt;Use case, practices || setting the living labs || testings || continuous monitoring || full demonstration&lt;br&gt;&lt;/b&gt;" style="rounded=1;whiteSpace=wrap;html=1;fillColor=#e1d5e7;strokeColor=#9673a6;" parent="1" vertex="1">
          <mxGeometry x="829.38" y="1010" width="769.38" height="60" as="geometry"/>
        </mxCell>
        <mxCell id="dvLsGVFBWOyTXWBjqWvK-46" value="&lt;b&gt;Modèle ? Citizens ?&amp;nbsp;&lt;/b&gt;" style="rounded=1;whiteSpace=wrap;html=1;fillColor=#fff2cc;strokeColor=#d6b656;" parent="1" vertex="1">
          <mxGeometry x="1110" y="510" width="360" height="70" as="geometry"/>
        </mxCell>
        <mxCell id="dvLsGVFBWOyTXWBjqWvK-47" value="&lt;b&gt;WP4. Collaborative design platform&lt;/b&gt;&lt;br&gt;Visualization&lt;br&gt;Dashboard" style="rounded=1;whiteSpace=wrap;html=1;fillColor=#d5e8d4;strokeColor=#82b366;" parent="1" vertex="1">
          <mxGeometry x="1430" y="800" width="206.35" height="80" as="geometry"/>
        </mxCell>
      </root>
    </mxGraphModel>
  </diagram>
</mxfile>
